<svg width="104" height="104" viewBox="0 0 104 104" fill="none" xmlns="http://www.w3.org/2000/svg">
<rect x="0.5" y="0.5" width="103" height="103" rx="7.5" fill="#F3F9FF" stroke="#0979FD" stroke-dasharray="3 3"/>
<path d="M58.8893 48.3597C59.9293 48.3597 60.7093 47.5797 60.7093 46.5397C60.7093 45.4997 59.9293 44.7197 58.8893 44.7197C57.8493 44.7197 57.0693 45.4997 57.0693 46.5397C57.0693 47.5797 57.8493 48.3597 58.8893 48.3597Z" fill="#0979FD"/>
<path d="M61.8793 54.8598L58.4993 51.6098C58.3693 51.4798 58.1093 51.3498 57.8493 51.3498C57.5893 51.3498 57.3293 51.4798 57.1993 51.6098L55.5093 53.1698L50.3093 48.0998C50.1793 47.9698 49.9193 47.8398 49.6593 47.8398C49.3993 47.8398 49.1393 47.9698 49.0093 48.0998L41.3393 55.3798C41.3393 55.3798 41.3393 55.3798 41.2093 55.5098C40.9493 55.6398 40.8193 55.8998 40.8193 56.1598V59.9298C40.8193 60.3198 41.2093 60.7098 41.5993 60.7098H56.2893C57.4593 58.1098 59.4093 56.0298 61.8793 54.8598Z" fill="#0979FD"/>
<path d="M55.8998 64.2199C55.8998 63.6999 55.8998 63.0499 56.0298 62.5299H40.2998C39.9098 62.5299 39.5198 62.1399 39.5198 61.7499V42.1199C39.5198 41.7299 39.9098 41.3399 40.2998 41.3399H63.6998C64.0898 41.3399 64.4798 41.7299 64.4798 42.1199V53.9499C65.1298 53.8199 65.6498 53.8199 66.2998 53.8199C66.4298 53.8199 66.6898 53.8199 66.8198 53.8199V41.2099C66.8198 40.0399 65.9098 39.1299 64.7398 39.1299H39.1298C37.9598 39.1299 37.0498 40.0399 37.0498 41.2099V62.7899C37.0498 63.9599 37.9598 64.8699 39.1298 64.8699H55.8998C55.8998 64.6099 55.8998 64.3499 55.8998 64.2199Z" fill="#0979FD"/>
<path d="M66.3 56.4199C62.01 56.4199 58.5 59.9299 58.5 64.2199C58.5 68.5099 62.01 72.0199 66.3 72.0199C70.59 72.0199 74.1 68.5099 74.1 64.2199C74.1 59.9299 70.59 56.4199 66.3 56.4199ZM70.46 65.1299H67.21V68.5099C67.21 69.0299 66.82 69.4199 66.3 69.4199C65.78 69.4199 65.39 69.0299 65.39 68.5099V65.1299H62.14C61.62 65.1299 61.23 64.7399 61.23 64.2199C61.23 63.6999 61.62 63.3099 62.14 63.3099H65.39V59.9299C65.39 59.4099 65.78 59.0199 66.3 59.0199C66.82 59.0199 67.21 59.4099 67.21 59.9299V63.3099H70.46C70.98 63.3099 71.37 63.6999 71.37 64.2199C71.37 64.7399 70.98 65.1299 70.46 65.1299Z" fill="#0979FD"/>
</svg>
